<?xml version="1.0" encoding="utf-8"?>
<!-- Generator: Adobe Illustrator 19.2.0, SVG Export Plug-In . SVG Version: 6.00 Build 0)  -->
<svg version="1.1" id="Capa_1" xmlns="http://www.w3.org/2000/svg" xmlns:xlink="http://www.w3.org/1999/xlink" x="0px" y="0px"
	 viewBox="0 0 200 200" style="enable-background:new 0 0 200 200;" xml:space="preserve">
<path d="M174,85.7c-1.2-14.7-18.2-19-26.8-12.4c-5.6-11.1-21.4-13.7-31-5.1c-6.1-10.6-25.9-11.1-32.8-0.1
	c-9.8-7.8-25.1-5.8-30.7,5.3c-8.6-6.6-26-2.1-27.2,12.5C15.2,84.2,5.6,88.4,5,100c0.6,11.6,10.2,15.8,20.6,14.1
	c1.2,14.6,18.6,19.1,27.2,12.5c5.6,11.1,20.9,13.1,30.7,5.3c6.9,11,26.7,10.5,32.8-0.1c9.6,8.6,25.4,6,31-5.1
	c8.6,6.6,25.6,2.3,26.8-12.4c10.4,1.7,20.3-3.1,21-14.3C194.3,88.8,184.5,84,174,85.7z M23.2,100.2c19.4-27.3,127-32,154.3,0
	C150.2,132.2,42.6,127.5,23.2,100.2z"/>
<path d="M57,93.3v1c-1.6-0.8-3.4-1.2-5.2-1.2c-2.8,0-5.5,1-7.5,3.1c-1.4,1.5-2.2,3.5-2.2,5.5v0.4c0,1.5,0.4,2.8,1.2,4
	c1.8,2.6,5.1,4.3,8.5,4.2c1.8-0.1,3.6-0.6,5.2-1.8v1.3h4.4V93.3H57z M55.7,105c-1,0.8-2.3,1.2-3.9,1.2c-1.7,0-3-0.4-3.9-1.2
	c-1-0.8-1.4-2-1.4-3.5s0.5-2.7,1.4-3.5c1-0.9,2.3-1.3,3.9-1.3c1.7,0,2.9,0.4,3.9,1.3c0.9,0.9,1.4,2,1.4,3.5S56.6,104.2,55.7,105z"/>
<path d="M163.2,96.7c-0.1-0.1-0.3-0.2-0.5-0.2c0.3,0,0.5-0.1,0.6-0.2c0.2-0.1,0.3-0.3,0.3-0.6c0-0.4-0.1-0.6-0.4-0.8
	c-0.2-0.1-0.4-0.2-0.7-0.2c-0.1,0-0.1,0-0.3,0h-1.3V98h0.8v-1h0.4c0.1,0,0.1,0,0.1,0c0.1,0,0.2,0,0.2,0c0.2,0,0.3,0.1,0.3,0.2v0.9
	h0.8V98c0-0.1,0-0.1,0-0.1v-0.4C163.5,97.1,163.4,96.8,163.2,96.7z M162.6,96.1c-0.1,0.1-0.3,0.1-0.4,0.1s-0.1,0-0.1,0.1h-0.4v-1
	h0.2c0.1,0,0.3,0,0.3,0c0.1,0,0.2,0,0.2,0c0.2,0.1,0.3,0.2,0.3,0.4S162.7,96,162.6,96.1z"/>
<path d="M164.2,94.2c-0.6-0.6-1.2-0.9-2.1-0.9c-0.8,0-1.5,0.3-2,0.8c-0.6,0.6-0.9,1.3-0.9,2.2c0,0.8,0.3,1.6,0.8,2.1
	c0.6,0.6,1.3,0.9,2.2,0.9c0.8,0,1.5-0.3,2-0.8c0.6-0.6,0.9-1.3,0.9-2.2C165.1,95.5,164.8,94.8,164.2,94.2z M163.8,98
	c-0.4,0.6-1,0.8-1.7,0.8c-0.7,0-1.2-0.3-1.7-0.8s-0.7-1.1-0.7-1.8s0.2-1.2,0.7-1.7s1.1-0.8,1.7-0.8c0.7,0,1.2,0.3,1.7,0.8
	c0.4,0.5,0.7,1.1,0.7,1.7C164.5,96.9,164.2,97.5,163.8,98z"/>
<path d="M152.4,93.3v1c-1.6-0.8-3.5-1.2-5.2-1.2c-2.8,0-5.5,0.9-7.5,3.1c-2.4,2.6-3,6.9-1,9.9c1.8,2.6,5.1,4.2,8.5,4.2
	c1.8,0,3.6-0.6,5.2-1.7v1.3h4.5V93.3H152.4z M151.1,105c-0.9,0.8-2.2,1.2-3.9,1.2s-2.9-0.4-3.7-1.2c-0.9-0.8-1.4-2-1.4-3.5
	s0.5-2.7,1.4-3.5c0.9-0.9,2.2-1.3,3.8-1.3c1.6,0,2.9,0.4,3.8,1.3c0.9,0.9,1.4,2,1.4,3.5S152,104.2,151.1,105z"/>
<g>
	<g>
		<path d="M126.5,95.3c-1.7-1.5-4-2.3-6.8-2.3h-0.1c-2.9,0-5.2,0.8-7,2.4c-1.8,1.7-2.7,3.8-2.7,6.3c0,2.6,0.9,4.7,2.6,6.3
			s4.1,2.2,7.1,2.2h0.1c4.8-0.1,6.3-1.7,8.7-5.2h-5.1c-0.5,0.7-0.5,0.4-1.2,0.8c-0.6,0.3-1.5,0.5-2.4,0.5c-1.4,0-2.4-0.3-3-0.7
			c-0.7-0.7-1.2-1.5-1.4-2.7H129v-1.3C129,98.9,128.2,96.9,126.5,95.3z M115,100.3c0.3-1.1,0.8-1.9,1.6-2.5c0.8-0.5,1.8-0.8,3.1-0.8
			h0.1c1.3,0,2.3,0.2,3.1,0.8c0.8,0.6,1.2,1.4,1.4,2.5H115z"/>
	</g>
</g>
<polygon points="119.7,85.9 119.7,85.9 124.3,85.8 119.8,90.6 119.7,90.6 117.3,90.6 119.7,85.9 "/>
<path d="M130.7,88c0-0.7,0.3-1.4,0.9-1.9c0.6-0.5,1.3-0.8,2.1-0.8s1.6,0.3,2.1,0.8c0.6,0.5,0.9,1.2,0.9,1.9c0,0.8-0.3,1.4-0.9,2
	c-0.6,0.5-1.3,0.8-2.1,0.8s-1.5-0.3-2.1-0.8C131,89.3,130.7,88.7,130.7,88L130.7,88z"/>
<polygon points="131.3,109.9 131.3,93.3 136,93.3 136,109.9 131.3,109.9 "/>
<path d="M94.9,93.3v1c-1.6-0.8-3.4-1.2-5.2-1.2c-2.8-0.1-5.6,0.9-7.5,3c-2.4,2.6-3,6.9-1,9.9c1.8,2.6,5.1,4.3,8.5,4.2
	c1.7,0,3.6-0.5,5.2-1.7v1.3h4.5V93.3H94.9z M93.6,105c-0.9,0.8-2.3,1.2-3.9,1.2c-1.7,0-3-0.4-3.7-1.2c-0.9-0.8-1.4-2-1.4-3.5
	s0.5-2.7,1.4-3.5c0.9-0.9,2.2-1.3,3.8-1.3c1.6,0,2.9,0.4,3.8,1.3c1,0.9,1.4,2,1.4,3.5S94.5,104.2,93.6,105z"/>
<polygon points="102.6,109.9 102.6,85.6 107.3,85.6 107.3,109.9 102.6,109.9 "/>
<path d="M79.4,109.9v-3.8h-8.7l7.9-11.4c0.9-1.5-0.7-1.5-2.9-1.5H64.2V97h7.9l-7.5,10.7c-0.4,0.2-1,2.2,1.2,2.1h13.6V109.9z"/>
</svg>
