<?xml version="1.0" encoding="utf-8"?>
<!-- Generator: Adobe Illustrator 19.2.0, SVG Export Plug-In . SVG Version: 6.00 Build 0)  -->
<svg version="1.1" id="Capa_1" xmlns="http://www.w3.org/2000/svg" xmlns:xlink="http://www.w3.org/1999/xlink" x="0px" y="0px"
	 viewBox="0 0 200 200" style="enable-background:new 0 0 200 200;" xml:space="preserve">
<style type="text/css">
	.st0{fill:#FFFFFF;}
</style>
<g>
	<path class="st0" d="M84.6,89.7c-6.2,1.9-8.7,5.3-8.7,11.7c0,6.3-0.1,12.6,0.1,18.9c0.1,2,0.6,4.1,1.6,5.9c2.2,4,6.9,5.6,11.3,4.5
		c4.4-1.1,7.5-5.2,7.6-10.3c0.1-6.6,0.1-13.2,0-19.7c0-3.7-1.4-7-4.6-9.1c-1.2-0.8-2.5-1.2-3.9-1.8c7.4-4.2,9.5-7.6,8-13.3
		C94.9,72,90.7,69,86,69c-4.8,0-8.6,3.1-9.8,7.7C74.9,82.3,77.1,85.7,84.6,89.7z"/>
	<path class="st0" d="M161,89.6c-5.6,1.4-8.8,4.6-9,9.7c-0.3,7.4-0.4,14.8,0.1,22.2c0.4,6.2,5.2,9.8,11,9.3
		c5.6-0.4,9.3-4.8,9.3-10.9c0-6,0-12,0-18c0-7-1.9-9.8-7.9-12.1c2-1.7,4.5-3.2,6.3-5.4c1.9-2.4,2-5.5,1.1-8.5c-1.3-4.2-5.2-7-9.7-7
		c-4.5,0-8.7,2.8-9.7,7c-0.5,2.1-0.4,4.6,0.2,6.7C153.7,86.5,156.8,88.4,161,89.6z"/>
	<path d="M84.6,89.7c-7.5-4-9.6-7.4-8.3-12.9c1.1-4.7,5-7.7,9.8-7.7c4.7,0,8.8,3,10,7.3c1.5,5.7-0.6,9.1-8,13.3
		c1.3,0.6,2.7,1.1,3.9,1.8c3.3,2.1,4.6,5.3,4.6,9.1c0.1,6.6,0.1,13.2,0,19.7c-0.1,5.1-3.2,9.2-7.6,10.3c-4.4,1.1-9.1-0.6-11.3-4.5
		c-1-1.7-1.5-3.9-1.6-5.9c-0.2-6.3-0.1-12.6-0.1-18.9C75.9,95,78.3,91.6,84.6,89.7z"/>
	<path d="M161,89.6c-4.2-1.2-7.3-3.1-8.4-6.9c-0.6-2.1-0.6-4.6-0.2-6.7c1-4.2,5.1-7,9.7-7c4.5,0,8.5,2.8,9.7,7
		c0.9,3,0.8,6.1-1.1,8.5c-1.8,2.2-4.3,3.7-6.3,5.4c6,2.2,7.9,5,7.9,12.1c0,6,0,12,0,18c0,6.1-3.7,10.5-9.3,10.9
		c-5.8,0.4-10.6-3.2-11-9.3c-0.5-7.4-0.4-14.8-0.1-22.2C152.2,94.2,155.4,91.1,161,89.6z"/>
	<g>
		<g>
			<path d="M68.5,98.4c-0.2-5.5-6.2-9.6-11.6-8.5c-4.2,0.8-6.9,3.4-8.4,7.7c-0.2-0.5-0.3-0.7-0.3-0.8c0-5.1,0-10.2-0.1-15.3
				c0-1.3-0.1-2.7-0.3-4c-0.9-5.4-5.4-8.8-11-8.4c-5.1,0.4-9.2,4.6-9.3,9.8c-0.1,14-0.1,28.1,0,42.1c0,5,4,9.5,8.9,9.7
				c7.8,0.2,15.7,0.2,23.5,0c4.6-0.1,8.5-4.1,8.6-8.6C68.8,114.2,68.8,106.3,68.5,98.4z M48.1,114.9c-2.5,0-4.4-2-4.4-4.5
				c0-2.6,1.8-4.5,4.3-4.6c2.5-0.1,4.7,2,4.8,4.5C52.8,112.7,50.6,115,48.1,114.9z"/>
		</g>
	</g>
	<path d="M144.6,99.5c-0.2-6.4-6-10.8-12.2-9.5c-4.3,0.9-6.7,3.7-8.3,7.6c0-0.8-0.1-1.5-0.1-2.3c0-5.2,0-10.3,0-15.5
		c0-6.2-4.2-10.6-10-10.7c-5.9-0.1-10.5,4.2-10.5,10.5c-0.1,13.6-0.1,27.2,0,40.8c0,5.9,4,10.3,9.6,10.5c7.4,0.2,14.8,0.2,22.2,0
		c5.4-0.1,9.3-4.3,9.4-9.8c0.1-2.7,0-5.5,0-8.2C144.6,108.4,144.7,103.9,144.6,99.5z M124.2,114.9c-2.5,0-4.6-2.2-4.6-4.7
		c0.1-2.4,2.1-4.4,4.6-4.4c2.6,0,4.6,2.1,4.5,4.6C128.7,112.9,126.6,114.9,124.2,114.9z"/>
</g>
</svg>
