<?xml version="1.0" encoding="utf-8"?>
<!-- Generator: Adobe Illustrator 19.2.0, SVG Export Plug-In . SVG Version: 6.00 Build 0)  -->
<svg version="1.1" id="Capa_1" xmlns="http://www.w3.org/2000/svg" xmlns:xlink="http://www.w3.org/1999/xlink" x="0px" y="0px"
	 viewBox="0 0 200 200" style="enable-background:new 0 0 200 200;" xml:space="preserve">
<g>
	<path d="M189.1,133.7c-0.6,0.6-1.3,0.9-2.2,0.9c-0.8,0-1.6-0.3-2.2-0.9c-0.6-0.6-0.9-1.3-0.9-2.2c0-0.8,0.3-1.6,0.9-2.1
		c0.6-0.6,1.3-0.9,2.1-0.9c0.8,0,1.6,0.3,2.2,0.9c0.6,0.6,0.9,1.3,0.9,2.1C190,132.4,189.7,133.1,189.1,133.7 M185.1,129.7
		c-0.5,0.5-0.8,1.1-0.8,1.9c0,0.7,0.3,1.4,0.8,1.9c0.5,0.5,1.1,0.8,1.9,0.8c0.7,0,1.3-0.3,1.8-0.8c0.5-0.5,0.8-1.1,0.8-1.9
		c0-0.7-0.3-1.3-0.8-1.9c-0.5-0.5-1.1-0.8-1.8-0.8C186.2,129,185.6,129.2,185.1,129.7 M186.9,129.9c0.4,0,0.7,0,0.9,0.1
		c0.3,0.1,0.5,0.4,0.5,0.8c0,0.3-0.1,0.5-0.3,0.7c-0.1,0.1-0.3,0.1-0.5,0.2c0.3,0,0.5,0.2,0.6,0.3c0.1,0.2,0.2,0.3,0.2,0.5v0.2
		c0,0.1,0,0.2,0,0.3c0,0.1,0,0.1,0,0.2l0,0h-0.6c0,0,0,0,0,0c0,0,0,0,0,0l0-0.1v-0.3c0-0.4-0.1-0.6-0.3-0.8
		c-0.1-0.1-0.3-0.1-0.7-0.1h-0.5v1.3h-0.6v-3.3H186.9z M187.5,130.4c-0.1-0.1-0.4-0.1-0.7-0.1h-0.5v1.2h0.5c0.2,0,0.4,0,0.6-0.1
		c0.2-0.1,0.3-0.3,0.3-0.5C187.8,130.7,187.7,130.5,187.5,130.4"/>
	<polygon points="187.3,41 187.3,56.5 182.6,58.4 182.6,49.9 179.3,51.2 179.3,123.6 182,124.7 182,131.3 169.5,126.4 169.5,120.1 
		172.5,121.1 172.5,53.7 169.3,54.8 169.3,63.1 164.7,64.6 164.7,49.9 	"/>
	<path d="M162.4,52.5v12.9l-5.2,1.7v-8.8l-3.8,0.9v12.1c0,0.4,0,0.9,0.2,1.4c1.7,4.7,9.6,15.4,10.8,18.9c0.1,0.3,0.2,1,0.2,1.3
		c0,4.8,0,26.2,0,29.1c0,1.4-1.5,2.3-2.7,2.1c-2.3-0.5-9-2.2-11.6-3c-0.6-0.2-1.7-1.2-1.7-2.7c0-3.7,0-13.6,0-13.6l5.6,1.2l0,9.7
		l3.7,0.9v-22c0-0.3-0.1-0.9-0.2-1.1c-1.3-3.3-9-14.3-10.7-18.5c-0.3-0.8-0.4-1.5-0.4-2.1c0-3.6,0-12.3,0-15.9
		c0-1.3,1.2-2.7,2.3-3.1c2.2-0.8,8.4-2.6,11.4-3.3C161.4,50.5,162.4,51.3,162.4,52.5"/>
	<path d="M43.6,52.9v6.2l-2.1-0.5c0,0,3.2,33.4,3.4,33.3c0,0,2.5-32,2.5-32l-1.9-0.4l0-6.2l10.3,2.1l0,6.1l-2.1-0.4l-6,59.6
		l-6.1,1.4l-7.1-65.6l-1.9-0.5V50L43.6,52.9z"/>
	<polygon points="75.4,58.2 75.4,71.3 70.7,70.8 70.7,63.8 67.2,63.3 67.2,81.3 73.3,81.3 73.3,87.9 67.2,87.9 67.2,111.5 
		70.9,111.1 70.9,100.4 76.3,99.9 76.3,116.5 57.1,119.1 57.1,113 60.2,112.5 60.2,62.4 57.9,62 57.9,55.9 	"/>
	<polygon points="113.7,58.8 113.6,64.8 110.8,65 110.8,109.9 114.8,110.1 114.8,98.6 120.3,98.9 120.3,116.5 101.8,115.6 
		101.8,109.6 104.1,109.6 104.1,65.2 101.2,65.2 101.2,59.3 	"/>
	<path d="M99.8,109.6c-1.8,0-1.8-1.5-1.8-1.5c0-3.3,0-13.9,0-17.1c0-3.9-2.4-4.8-2.4-4.8c1-0.7,2.3-1.9,2.3-3.9c0-2.2,0-11.6,0-16.8
		c-0.1-2-0.5-5.8-6.5-6.3c-2-0.2-13.9-0.8-13.9-0.8v6l3.1,0.2l0,45.6l-2.3,0.2l0,6l11.2-0.6l0-6l-2.4,0.1V89.4c0,0,4.7,0,4.7,0
		l0,19.3c0.2,4.5,0.4,7.1,7.9,6.8C99.8,115.5,99.8,109.6,99.8,109.6 M87.2,82V65l4.3,0.2l0,16.8H87.2z"/>
	<path d="M146.5,114.2l-2.2-0.4L137,56.3l-5.6,0.8l-6.6,53.8l-2.3-0.2l0,6l10.8,1.3v-6.1l-1.8-0.2l0.7-8l4.3,0.6l0.6,8.2l-2-0.3v6.1
		l11.4,2L146.5,114.2z M132.7,96.8l1.6-17.1c0,0,1.7,17.5,1.7,17.5L132.7,96.8z"/>
	<polygon points="30.7,49.3 30.7,63.6 25.6,62.3 25.6,54 21.6,52.6 21.6,79.7 28.9,79.7 28.9,87.2 21.5,87.2 21.5,122.3 25.6,120.8 
		25.6,107.4 31.5,105.4 31.5,125.2 10,133.8 10,127.1 13.9,125.3 13.8,49.5 10,47.7 10,41 	"/>
	<path d="M144.9,135.1c-0.7-0.1-1.5-0.1-2.2-0.1c0,0-3.8-0.1-5.7-0.1c-15.9,0.3-30.3,4.9-41.3,11.9c-0.7,0.5-1.6,0.4-2,0.2
		c-1.8-0.7-10.2-3.8-10.4-3.9c-0.3-0.1-1-0.2-0.4-1c1.3-1.7,3.6-3,5.5-4.1c3.1-1.8,6.8-3.2,10.2-4.4c-0.9,0.1-1.4,0.1-2,0.2
		c-1.6,0.2-3.2,0.4-4.8,0.8c-5,1-10.3,2.6-14.8,5.3c-0.7,0.4-1.7,0.1-1.7,0.1l-6.4-2.3c0,0-1.1-0.3,0.1-0.9c7.3-3.9,15.8-6.7,25-8
		c1.1-0.2,2.2-0.3,3.3-0.4c-0.9-0.1-2.9-0.2-3.1-0.2c-1.6-0.1-3.1-0.1-4.7,0c-13.9,0.3-26.7,3.7-37,9.4c-0.4,0.2-0.5,0.8-0.1,0.9
		c4.6,2.1,44.5,20.6,44.6,20.6c0.5,0.2,1,0,1.3-0.4c8-10.4,21.5-18.5,37.9-22C138.9,135.9,141.9,135.4,144.9,135.1"/>
</g>
</svg>
