<?xml version="1.0" encoding="utf-8"?>
<!-- Generator: Adobe Illustrator 19.2.0, SVG Export Plug-In . SVG Version: 6.00 Build 0)  -->
<svg version="1.1" id="Capa_1" xmlns="http://www.w3.org/2000/svg" xmlns:xlink="http://www.w3.org/1999/xlink" x="0px" y="0px"
	 viewBox="0 0 200 200" style="enable-background:new 0 0 200 200;" xml:space="preserve">
<g>
	<path d="M168.7,101c-0.4-0.6-0.5-0.6-2.4-1.1c-1.1-0.3-4.6-1.2-5.5-1.5c-1.2-0.3-1.4-0.5-1.5-1.5c0-0.3-0.1-0.8-0.1-1.4
		c0-0.6,0-0.7,0.5-1c0.3-0.2,1.4-0.8,1.8-1c0.6-0.3,1-0.2,1.7,0.1c0.3,0.1,1.5,0.6,1.9,0.8c0.4,0.2,0.4,0.3,0.8,1.2
		c0.2,0.4,0.6,0.4,0.9,0.2c0.3-0.1,1.7-0.9,2-1c0.5-0.3,0.7-0.5,0.5-0.8c-0.3-0.4-0.3-0.5-0.5-0.7c-0.2-0.3-0.4-0.5-0.8-1
		c-0.5-0.6-0.4-0.5-1.4-0.7c-0.7-0.1-3.6-0.7-4.4-0.9c-0.5-0.1-0.7,0-1.2,0.2c-0.5,0.2-2.5,1.1-3,1.3c-1.2,0.6-1.4,0.6-1.6,0.9
		c-0.2,0.4-0.1,0.2-0.7,1.3c-0.7,1.3-0.8,1.5-0.7,2c0.2,0.8,0.7,2,1.1,3.1c0.4,1.1,0.4,1.3,2.7,1.9c1.3,0.4,5.3,1.4,5.8,1.6
		c0.8,0.3,0.9,0.4,1.2,1.1c0.1,0.3,0.3,0.8,0.5,1.1c0.2,0.5,0.4,0.9,0.3,1.5c-0.1,0.7-0.9,0.9-1.3,1.2c-0.5,0.3-1.6,0.8-2.2,1.1
		c-0.8,0.3-0.9,0.4-1.9-0.1c-0.9-0.4-1.2-0.6-1.8-0.9c-0.4-0.2-0.3-0.1-0.6-0.5c-0.3-0.3-0.7-0.7-1-1.1c-0.5-0.6-0.8-0.4-1.3-0.2
		c-0.4,0.2-1.9,1-2.3,1.2c-0.4,0.2-0.4,0.5-0.1,0.8c0.4,0.4,1.4,1.3,1.7,1.6c0.7,0.6,1.2,1.1,1.8,1.2c1.2,0.3,3.2,0.8,4.5,1.2
		c1.6,0.4,1.2,0.3,2.6-0.2c0.5-0.2,3.1-1.3,3.8-1.6c0.8-0.4,0.9-0.5,1.2-1.7c0.2-0.6,0.7-2.4,0.8-3c0.2-0.7,0.2-1.3-0.1-1.9
		C170.1,103.4,169,101.6,168.7,101L168.7,101z M100.4,97.2c-0.9,0-2.2,0-2.7,0c-0.7,0-1,0.2-1,1c0,0.7,0,9.3,0,12.2
		c0,0.6,0.4,1,0.9,1c0.6,0,0.7,0,1.4,0c0.7,0,1-0.3,1.1-1c0.3-3,1.1-12.1,1.1-12.5C101.2,97.5,100.8,97.2,100.4,97.2L100.4,97.2z
		 M99,90.4c-1.4,0-2.6,1.2-2.6,2.6c0,1.4,1.2,2.6,2.6,2.6c1.4,0,2.6-1.2,2.6-2.6C101.6,91.6,100.5,90.4,99,90.4L99,90.4z
		 M148.3,106.6c-0.2,0.1-2,1-2.9,1.5c-0.4,0.2-0.9,0.2-1.2,0c-0.2-0.1-1-0.5-1.5-0.8c-0.4-0.2-0.6-0.6-0.7-1.1
		c0-0.3-0.1-1.8-0.2-2.7c0-0.3,0.1-0.9,0.4-1.2c0.2-0.2,0.9-0.6,1.3-0.8c0.5-0.3,1.1-0.5,1.5-0.7c0.5-0.2,1-0.2,2.1,0.1
		c0.3,0.1,1.1,0.3,1.3,0.4c0.3,0.2,0.3,0.6,0.3,0.8c0,0.2,0,2.6,0,3.5C148.8,106.1,148.6,106.4,148.3,106.6L148.3,106.6z M154.1,110
		c-0.5-0.5-1.3-1-1.6-1.3c-0.2-0.1-0.2-0.3-0.2-0.5c0.2-2.1,1.1-11.5,1.1-11.8c0.1-0.9-0.2-1.6-0.8-2.3c-0.7-0.8-1.5-1.6-1.6-1.7
		c-0.7-0.7-1.7-1.1-2.7-1.1c-1.4,0-3.8-0.1-4-0.1c-1,0-1.6,0.1-2.5,0.7c-0.7,0.5-1.6,1-1.8,1.1c-0.5,0.4-0.8,0.8-0.9,1.3
		c-0.1,0.9-0.4,2.3-0.4,2.5c-0.1,0.6,0.2,0.9,0.7,0.9c0.2,0,1.7-0.1,2.6-0.2c0.5,0,0.8-0.2,1-0.8c0.1-0.2,0.5-1.5,0.8-2.2
		c0.2-0.5,0.4-0.6,0.8-0.7c0.6-0.1,1.4-0.2,1.5-0.2c0.5-0.1,0.7,0,1.1,0.2c0.2,0.1,1.1,0.8,1.2,0.9c0.2,0.1,0.5,0.5,0.5,0.9
		c0,0.2,0,3,0,3s0,0.5-0.6,0.3c-0.8-0.3-2.8-0.9-3.7-0.8c-0.6,0.1-1.6,0.5-1.9,0.6c-0.6,0.3-1.5,0.7-2.5,1.2c-1,0.5-1.4,0.8-1.5,1
		c-0.6,0.6-0.7,1.4-0.7,2.1c-0.1,1.2-0.2,3.7-0.2,3.9c0,0.9,0.3,1.6,1.1,2.2c1.1,0.8,2.5,1.9,2.7,2c0.7,0.5,2.1,0.6,2.7,0.2
		c1.4-0.7,4.3-2.2,4.3-2.2c0.1,0,0.2,0,0.2,0.1c0,0.1,0.1,0.2,0.1,0.2c0,0.1,0.2,0.3,0.3,0.4c0.6,0.5,2,1.7,2.1,1.8
		c0.5,0.4,0.9,0.4,1.3,0.2c1-0.6,1.6-0.9,1.7-1C154.7,110.6,154.5,110.3,154.1,110L154.1,110z M133.3,92.9c-0.4-0.5-1-0.6-1.5-0.6
		c-1.2,0-2.9,0.1-3.5,0.1c-0.9,0.1-1.3,0.3-1.8,0.8c-0.4,0.5-1.1,1.2-1.2,1.3c-0.6,0.6-0.7,0.3-0.6-0.3c0-0.4,0.1-1.4,0.1-1.9
		c0.1-0.8-0.4-1-1.1-1c-0.8,0-1.8,0-2.2,0c-1.3,0-1.5,0-1.5,1.5c0,1.1,0.1,13.1,0.1,16.8c0,0.7,0.4,1.1,0.9,1.1c0.5,0,1.6,0,2,0
		c0.3,0,0.7-0.4,0.8-1.1c0.2-2.9,0.7-10.7,0.7-11.2c0.1-0.6,0.3-1,0.7-1.3c0.6-0.5,1.5-1.1,1.7-1.3c0.3-0.3,0.6-0.4,1-0.4
		c0.7,0,1.1,0,1.5,0c0.3,0,0.6,0.1,0.9,0.2c0.3,0.2,0.8,0.8,1,0.9c0.3,0.3,0.4,0.4,0.4,0.9c0,2.6,0.2,11.4,0.2,12
		c0,0.7,0.3,1.1,0.7,1.1c0.6,0,1.3,0,1.6,0c0.5,0,0.7-0.3,0.8-0.9c0.3-2.7,1-10.9,1.1-11.8c0.2-1.5-0.1-1.8-0.8-2.7
		C134.6,94.3,133.9,93.5,133.3,92.9L133.3,92.9z M113.6,105.6c0,0.6,0,1-0.5,1.2c-0.2,0.1-1.7,0.9-2.7,1.4c-0.4,0.2-1,0.3-1.5,0.1
		c-0.5-0.3-0.7-0.3-1.4-0.7c-0.5-0.3-0.7-0.7-0.7-1.2c0-0.6-0.1-2.2-0.2-2.7c0-0.6,0.1-1,0.8-1.4c0.3-0.2,1.6-0.8,2.1-1
		c0.5-0.3,1.3-0.3,1.6-0.2c0.3,0.1,1.5,0.4,2,0.5c0.4,0.1,0.5,0.6,0.5,1C113.6,103.2,113.6,105.3,113.6,105.6L113.6,105.6z
		 M128.3,108.3c-1,0.1-1.5,0.1-1.7,0.1c-0.6,0.1-0.9,0.2-1,1.1c-0.2,1.1-0.1,1.8-1.1,2.2c-1,0.4-1.4,0.5-1.9,0.6
		c-0.9,0.1-1.1,0.1-2,0c-1.2-0.2-1.6-0.6-2.2-1.6c-0.2-0.2-0.5-0.9-0.9-1.8c-0.1-0.2-0.2-0.6-0.2-0.8c0.1-2.1,0.4-11.4,0.4-11.6
		c0.1-0.9,0.2-1.6-0.5-2.3c-0.7-0.7-1.6-1.6-1.7-1.8c-0.7-0.6-1.3-0.8-2.4-0.8c-1.4,0-4.2-0.1-4.4-0.1c-1,0-0.9,0-1.8,0.4
		c-0.9,0.5-2,1.3-2.3,1.5c-0.5,0.3-0.7,0.7-0.8,1.3c-0.1,0.8-0.3,1.6-0.4,2.4c-0.1,0.6,0.2,0.9,0.7,0.9c0.2,0,1.7-0.1,2.5-0.2
		c0.5,0,0.8-0.2,1-0.8c0-0.2,0.5-1.3,0.7-2c0.2-0.5,0.4-0.8,0.9-0.9c0.7-0.1,0.8-0.2,1.3-0.2c0.9-0.1,1,0,1.3,0.1
		c0.2,0.1,0.7,0.5,1.2,0.8c0.3,0.2,0.6,0.5,0.6,1.2c0,0.2,0.1,1.8,0,2.1c0,0.3,0.2,1.1-0.4,1c-0.7-0.1-1.5-0.6-2.9-0.8
		c-0.2,0-0.8-0.1-1.3,0c-0.7,0.2-1.9,0.7-2,0.7c-1.1,0.5-1.4,0.6-2.8,1.3c-1,0.5-1.4,1.1-1.5,2.1c-0.1,1.2-0.3,4.1-0.3,4.3
		c-0.1,1,0.4,1.9,1.2,2.5c1.1,0.8,2.3,1.7,2.6,1.9c0.7,0.5,1.9,0.7,2.8,0.2c1.3-0.7,4-2,4.1-2.1c0.1,0,0.3-0.2,0.4-0.1
		c0,0.1,0.1,0.4,0.2,0.5c0,0.1,0.2,0.3,0.4,0.5c0.7,0.7,1.2,1.3,1.8,1.9c1.3,1.3,1.4,1.4,3,1.8c1.7,0.4,1.8,0.4,2.1,0.5
		c0.3,0.1,0.6,0.3,3-0.1c2.4-0.4,2.5-0.4,2.8-0.5c0.2,0,1.2-0.1,1.6-1.7c0.4-1.6,0.6-2.5,0.7-2.8C129,109,129.4,108.3,128.3,108.3
		L128.3,108.3z M173.3,95.5c-1.3,0-2-1-2-2.2c0-1.3,0.9-2.2,2-2.2c1.1,0,2,0.9,2,2.2C175.3,94.7,174.4,95.5,173.3,95.5L173.3,95.5z
		 M173.3,90.7c-1.4,0-2.6,1-2.6,2.6c0,1.5,1.1,2.6,2.6,2.6c1.4,0,2.6-1,2.6-2.6C175.9,91.8,174.7,90.7,173.3,90.7L173.3,90.7z
		 M43.3,93.5c-0.6-0.8-0.9-0.8-2-0.8c-0.2,0-2.5,0-3.4,0.1c-0.9,0-1.5,0.2-2,0.7c-0.3,0.3-1.1,1.2-1.2,1.3c-0.1,0.1-0.2,0.3-0.3,0.3
		c-0.2,0-0.2-0.2-0.1-0.5c0.1-1.2,0.4-6.3,0.5-7.9c0-0.5-0.2-1-0.8-1c-0.2,0-2.6,0.1-3.6,0.1c-0.5,0-0.9,0.4-0.9,0.9
		c0,0.3,0.3,20.5,0.3,23.7c0,0.3,0.2,0.4,0.5,0.4c0.2,0,1.9,0,2.6,0c0.2,0,0.4-0.2,0.4-0.3c0-0.1,0.5-8.1,0.6-10.8
		c0-1,0.4-2.1,0.8-2.5c0.4-0.3,1.3-1,1.7-1.3c0.4-0.3,0.7-0.3,1-0.3c0.4,0,1.2,0,1.5,0c0.5,0,0.5,0.1,0.9,0.3
		c0.2,0.1,0.5,0.4,0.7,0.5c0.4,0.3,0.6,0.6,0.6,1.2c0,0.1,0.3,9.7,0.3,12.1c0,0.6,0.1,1.1,0.8,1.1c0.2,0,1.2,0,1.8,0
		c0.6,0,0.7-0.5,0.7-1.1c0-0.2,0.5-9.7,0.7-12.1c0.1-1-0.1-1.5-0.6-2.2C44.6,95.2,43.9,94.3,43.3,93.5L43.3,93.5z M172.8,93.2v-0.9
		h0.6c0.3,0,0.6,0,0.6,0.4c0,0.4-0.3,0.5-0.7,0.5H172.8L172.8,93.2z M174.5,92.8c0-0.6-0.4-0.8-1.1-0.8h-1.1v2.9h0.5v-1.2h0.4
		l0.8,1.2h0.5l-0.8-1.3C174.2,93.6,174.5,93.3,174.5,92.8L174.5,92.8z M89.3,106.6c-0.2,0.1-2,1-2.9,1.5c-0.4,0.2-0.9,0.2-1.2,0
		c-0.2-0.1-1-0.5-1.5-0.8c-0.4-0.2-0.6-0.6-0.7-1.1c0-0.3-0.1-1.8-0.2-2.7c0-0.3,0.1-0.9,0.4-1.2c0.2-0.2,0.9-0.6,1.3-0.8
		c0.5-0.3,1.1-0.5,1.5-0.7c0.5-0.2,1-0.2,2.1,0.1c0.3,0.1,1.1,0.3,1.3,0.4c0.3,0.2,0.3,0.6,0.3,0.8c0,0.2,0,2.6,0,3.5
		C89.8,106.1,89.7,106.4,89.3,106.6L89.3,106.6z M95.1,110c-0.5-0.5-1.3-1-1.6-1.3c-0.2-0.1-0.2-0.3-0.2-0.5
		c0.2-2.1,1.1-11.5,1.1-11.8c0.1-0.9-0.2-1.6-0.8-2.3c-0.7-0.7-1.5-1.6-1.6-1.7c-0.7-0.7-1.6-1.1-2.7-1.1c-1.4,0-3.8-0.1-4-0.1
		c-1,0-1.6,0.1-2.5,0.7c-0.7,0.5-1.6,1-1.8,1.1c-0.5,0.4-0.8,0.8-0.9,1.3c-0.1,0.9-0.4,2.3-0.4,2.5c-0.1,0.6,0.2,0.9,0.7,0.9
		c0.2,0,1.7-0.1,2.6-0.2c0.5,0,0.8-0.2,1-0.8c0.1-0.2,0.5-1.5,0.8-2.2c0.2-0.5,0.4-0.6,0.8-0.7c0.6-0.1,1.4-0.2,1.5-0.2
		c0.5-0.1,0.7,0,1.1,0.2c0.2,0.1,1.1,0.8,1.2,0.9c0.2,0.1,0.5,0.5,0.5,0.9c0,0.2,0,3,0,3s0,0.5-0.6,0.3c-0.8-0.3-2.8-0.9-3.7-0.8
		c-0.6,0.1-1.6,0.5-1.9,0.6c-0.6,0.3-1.5,0.7-2.5,1.2c-1,0.5-1.4,0.8-1.5,1c-0.6,0.6-0.7,1.4-0.7,2.1c-0.1,1.2-0.2,3.7-0.2,3.9
		c0,0.9,0.3,1.6,1.1,2.2c1.1,0.8,2.5,1.9,2.7,2c0.7,0.5,2.1,0.6,2.7,0.2c1.4-0.7,4.3-2.2,4.3-2.2c0.1,0,0.2,0,0.2,0.1
		c0,0.1,0,0.2,0.1,0.2c0,0.1,0.2,0.3,0.3,0.4c0.6,0.5,2,1.7,2.1,1.8c0.5,0.4,0.9,0.4,1.3,0.2c1-0.6,1.6-0.9,1.7-1
		C95.7,110.6,95.5,110.3,95.1,110L95.1,110z M57.4,106.6c-0.2,0.1-2,1-2.9,1.5c-0.4,0.2-0.9,0.2-1.2,0c-0.2-0.1-1-0.5-1.5-0.8
		c-0.4-0.2-0.6-0.6-0.7-1.1c0-0.3-0.1-1.8-0.2-2.7c0-0.4,0.1-0.9,0.4-1.2c0.2-0.2,0.9-0.6,1.3-0.8c0.5-0.3,1.1-0.5,1.5-0.7
		c0.5-0.2,1-0.2,2.1,0.1c0.3,0.1,1.1,0.3,1.3,0.4c0.3,0.2,0.3,0.6,0.3,0.8c0,0.2,0,2.6,0,3.5C57.9,106.1,57.7,106.4,57.4,106.6
		L57.4,106.6z M63.2,110c-0.5-0.5-1.3-1-1.6-1.3c-0.2-0.1-0.2-0.3-0.2-0.5c0.2-2.1,1.1-11.5,1.1-11.8c0.1-0.9-0.2-1.6-0.8-2.3
		c-0.7-0.8-1.5-1.6-1.6-1.7c-0.7-0.7-1.6-1-2.7-1.1c-1.4,0-3.8-0.1-4-0.1c-1,0-1.6,0.1-2.5,0.7c-0.7,0.5-1.6,1-1.8,1.1
		c-0.5,0.4-0.8,0.8-0.9,1.3c-0.1,0.9-0.4,2.3-0.4,2.5c-0.1,0.6,0.2,0.9,0.7,0.9c0.2,0,1.7-0.1,2.5-0.2c0.5,0,0.8-0.2,1-0.8
		c0.1-0.2,0.5-1.5,0.8-2.2c0.2-0.5,0.4-0.6,0.8-0.7c0.6-0.1,1.4-0.2,1.5-0.2c0.5-0.1,0.7,0,1.1,0.2c0.2,0.1,1.1,0.8,1.2,0.9
		c0.2,0.1,0.5,0.5,0.5,0.9c0,0.2,0,3,0,3s0,0.5-0.6,0.3c-0.8-0.3-2.8-0.9-3.7-0.8c-0.6,0.1-1.6,0.5-1.9,0.6
		c-0.6,0.3-1.5,0.7-2.5,1.2c-1,0.5-1.4,0.8-1.5,1c-0.6,0.6-0.7,1.4-0.7,2.1c-0.1,1.2-0.2,3.7-0.2,3.9c0,0.9,0.3,1.6,1.1,2.2
		c1.1,0.8,2.5,1.9,2.7,2c0.7,0.5,2.1,0.6,2.7,0.2c1.4-0.7,4.3-2.2,4.3-2.2c0.1,0,0.2,0,0.2,0.1c0,0.1,0,0.2,0.1,0.2
		c0,0.1,0.2,0.3,0.3,0.4c0.6,0.5,2,1.7,2.1,1.8c0.5,0.4,0.9,0.4,1.3,0.2c1-0.6,1.6-0.9,1.7-1C63.8,110.6,63.6,110.3,63.2,110
		L63.2,110z M78.1,91.4c-0.4,0-1.2,0-1.7,0c-0.5,0-0.9,0.4-1.1,0.8c-0.8,2.9-3.9,13.3-4,13.6c-0.1,0.4-0.5,0.4-0.6,0
		c-0.1-0.4-2.4-13.3-2.5-13.7c-0.1-0.4-0.2-0.8-1-0.8c-0.9,0-2.4-0.1-2.8-0.1c-0.7,0-1.2,0.1-1,0.8c0.1,0.6,3.6,14.3,4.5,17.9
		c0.1,0.5,0.7,0.8,1.3,0.7c0.5-0.1,1-0.1,1.3-0.2c0.6-0.1,1-0.1,1.6,0.1c0.2,0,0.5,0.1,0.7,0.1c0.4,0.1,0.9-0.4,1-0.9
		c0.1-0.4,4-13.8,5-17.4C78.9,91.9,78.7,91.4,78.1,91.4L78.1,91.4z M177.9,123c-8,6.8-18.8,12.3-32.3,16.3
		c-13.5,4.1-28.7,6.5-45.5,6.6c-16.8-0.1-31.9-2.5-45.4-6.6c-13.5-4-24.4-9.5-32.4-16.3c-8-6.8-12.1-14.5-12.2-23
		c0.2-8.4,4.2-16.1,12.2-22.9c8-6.8,18.9-12.3,32.4-16.4c13.5-4,28.6-6.6,45.4-6.7c16.8,0.1,32,2.7,45.5,6.7
		c13.5,4.1,24.3,9.6,32.3,16.4c8,6.8,12.1,14.5,12.3,22.9C190,108.5,185.9,116.2,177.9,123L177.9,123z M179.4,73.2
		c-8.2-7.9-19.2-14.3-33-19.1c-13.9-4.7-29.3-7.1-46.5-7.2c-17.1,0.1-32.5,2.5-46.4,7.2c-13.8,4.8-24.8,11.1-33,19.1
		C12.4,81.1,8.3,90.1,8,100c0.3,9.8,4.4,18.8,12.6,26.8c8.2,7.9,19.2,14.3,33,19.1c13.8,4.7,29.2,7.1,46.4,7.2
		c17.2-0.1,32.6-2.5,46.5-7.2c13.8-4.7,24.8-11.1,33-19.1c8.2-8,12.3-16.9,12.6-26.8C191.7,90.1,187.6,81.1,179.4,73.2L179.4,73.2z"
		/>
</g>
</svg>
