<?xml version="1.0" encoding="utf-8"?>
<!-- Generator: Adobe Illustrator 23.0.6, SVG Export Plug-In . SVG Version: 6.00 Build 0)  -->
<svg version="1.1" id="Capa_1" xmlns="http://www.w3.org/2000/svg" xmlns:xlink="http://www.w3.org/1999/xlink" x="0px" y="0px"
	 viewBox="0 0 200 200" style="enable-background:new 0 0 200 200;" xml:space="preserve">
<style type="text/css">
	.st0{fill:#FFFFFF;}
</style>
<g>
	<path d="M4.6,61.9h190.7v76.3H4.6V61.9z"/>
	<path class="st0" d="M166,79.6V68h-32.7l-5.4,39l-5.3-39h-11.8l1.3,10.4C110.8,75.7,106,68,95.4,68c-0.1,0-11.8,0-11.8,0l0,56.9
		L74.9,68l-15.4,0l-8.9,58.9l0-58.9H35.8l-5.3,33.1L25.3,68H10.5V132h11.6v-30.9l5.3,30.9h6.2l5.2-30.9V132h22.4l1.4-9.9h9l1.4,9.9
		l22,0h0v0h0v-20.8l2.7-0.4l5.6,21.2h11.4l0,0h0l-7.3-24.8c3.7-2.7,7.9-9.7,6.8-16.3v0c0,0.1,6.9,41.2,6.9,41.2l13.6,0l9.3-58.1V132
		h22v-11.5h-10.4v-14.7H166V94.1h-10.4V79.6L166,79.6L166,79.6z M64,112l3.2-27.4l3.3,27.4H64z M97.9,99.4C97,99.8,96,100,95.1,100
		V79.4c0,0,0,0,0.1,0c0.9,0,7.7,0.3,7.7,10.2C102.9,94.8,100.6,98,97.9,99.4L97.9,99.4z M189.5,120.5V132H168v-64h11.5v52.5H189.5z"
		/>
</g>
</svg>
