<?xml version="1.0" encoding="utf-8"?>
<!-- Generator: Adobe Illustrator 22.1.0, SVG Export Plug-In . SVG Version: 6.00 Build 0)  -->
<svg version="1.1" id="Capa_1" xmlns="http://www.w3.org/2000/svg" xmlns:xlink="http://www.w3.org/1999/xlink" x="0px" y="0px"
	 viewBox="0 0 200 200" style="enable-background:new 0 0 200 200;" xml:space="preserve">
<style type="text/css">
	.st0{fill:#E7C23A;}
	.st1{fill:#211915;}
</style>
<path class="st0" d="M-379.3,73.9c-0.2,0.2-0.4,0.2-0.5,0.4c0-0.2,0.4-0.2,0.5-0.2V73.9z"/>
<path class="st1" d="M-379.3,73.9v0.2c0.5-0.2,1.3-0.4,2-0.7C-378,73.5-378.8,73.7-379.3,73.9"/>
<path class="st0" d="M-447.1,86c-0.2-0.2-0.4-0.4-0.5-0.4C-447.4,85.6-447.3,85.8-447.1,86"/>
<path d="M158.1,32.9L158.1,32.9c-0.2,0.1-0.5,0.1-0.9,0.3c-21.2,7.9-39.4,3.4-55.5-13.7l-1.7-1.8l-1.7,1.8
	C82,36.9,63.6,41.3,42.1,32.9l-3.2-1.2v88.7l0,0.1c0.6,12.7,4.6,23.2,11.8,31.4l0.2,0.2c0.4,0.4,0.7,0.8,1.2,1.3l0.1,0.2l0.2,0.2
	c0.1,0.1,0.2,0.2,0.3,0.3c4.1,4.3,8.5,8,13.2,11l0.6,0.4h0.1c3.1,1.8,6,3.3,8.9,4.6l0.1,0c1.3,0.5,7.5,2.4,9.4,2.8
	c2.2,0.5,7.1,2.7,8,3.2c1.3,0.8,2.2,1.4,2.8,1.9l0.1,0.1c0.6,0.4,1.5,1.4,2.4,2.3l1.6,1.7l1.7-1.7c0.5-0.5,1.8-1.8,2.6-2.4l0.1-0.1
	c0.4-0.3,2-1.4,3.4-2.2c2.4-1.3,4.8-2.3,7.4-2.8c1.4-0.3,5.7-1.6,9.1-2.7l0.4-0.1c3.3-1.5,6.2-3,8.9-4.6l0,0
	c0.1-0.1,0.2-0.1,0.3-0.2l0.2-0.1l0,0c4.7-3,9.2-6.7,13.3-11.1l0.2-0.2l0-0.1c0,0,0.1-0.1,0.1-0.2l0.1-0.1c0.3-0.3,0.6-0.6,0.8-0.9
	c0.2-0.2,0.3-0.4,0.5-0.6l0.1-0.1c7.1-8.2,11.1-18.8,11.7-31.4l0-0.1V35.1l0-3.1L158.1,32.9z M146.2,79.8l-4.3-3.1l-4.3,3.1l1.6-5
	l-4.3-3.1h5.3l1.7-5.1l1.6,5.1h5.3l-4.3,3.1L146.2,79.8z M127.7,74.7l1.7,5l-4.3-3.1l-4.4,3.1l1.7-5l-4.3-3.1h5.3l1.7-5.1l1.7,5.1
	h5.3L127.7,74.7z M112.5,79.8l-4.3-3.1l-4.3,3.1l1.7-5l-4.3-3.1h5.3l1.6-5.1l1.7,5.1h5.3l-4.3,3.1L112.5,79.8z M84.5,71.6h5.3
	l1.7-5.1l1.7,5.1h5.3l-4.4,3.1l1.7,5l-4.3-3.1l-4.4,3.1l1.7-5L84.5,71.6z M79,79.8l-4.3-3.1l-4.3,3.1l1.7-5l-4.3-3.1h5.3l1.6-5.1
	l1.7,5.1h5.3l-4.3,3.1L79,79.8z M62.3,79.8L58,76.7l-4.4,3.1l1.7-5L51,71.6h5.3l1.7-5.1l1.7,5.1h5.3l-4.3,3.1L62.3,79.8z
	 M104.2,63.8l-4.3-3.1l-4.3,3.1l1.6-5.1l-4.3-3.1h5.3l1.7-5l1.6,5h5.4l-4.4,3.1L104.2,63.8z M62.1,63.8l1.6-5.1l-4.3-3.1h5.3l1.7-5
	l1.6,5h5.4L69,58.7l1.7,5.1l-4.3-3.1L62.1,63.8z M78.8,63.8l1.6-5.1l-4.3-3.1h5.3l1.7-5l1.6,5h5.3l-4.3,3.1l1.7,5.1l-4.3-3.1
	L78.8,63.8z M112.3,63.8l1.6-5.1l-4.3-3.1h5.3l1.7-5l1.6,5h5.3l-4.3,3.1l1.6,5.1l-4.2-3.1L112.3,63.8z M129.1,63.8l1.6-5.1l-4.3-3.1
	h5.3l1.7-5l1.6,5h5.4l-4.4,3.1l1.7,5.1l-4.3-3.1L129.1,63.8z M56,150.9l-0.1-0.1c0,0,0,0,0,0c-0.2-0.2-0.3-0.4-0.4-0.5
	c-0.3-0.3-0.7-0.7-1-1.1l-0.2-0.2c-0.2-0.2-0.3-0.4-0.4-0.5V89.5h13.7v71.2C63.4,157.9,59.6,154.6,56,150.9z M85.9,168.5
	c-1-0.2-3.7-1-5.9-1.7V89.5h13.7v82C91.3,170.3,87.5,168.8,85.9,168.5L85.9,168.5z M114.1,168.5c-2.7,0.6-5.3,1.5-7.8,2.8V89.5H120
	v77.3C117,167.7,114.8,168.3,114.1,168.5z M145.2,149.6c-0.1,0.2-0.3,0.3-0.4,0.5c-0.3,0.2-0.5,0.5-0.7,0.7l-0.1,0.1
	c0,0-0.1,0.1-0.1,0.1c-3.5,3.7-7.3,6.9-11.3,9.6V89.5h13.7v58.9c-0.1,0.2-0.3,0.3-0.4,0.5C145.6,149.1,145.4,149.4,145.2,149.6z"/>
</svg>
